<svg xmlns="http://www.w3.org/2000/svg" width="264.128" height="27.116" viewBox="0 0 264.128 27.116"><defs><style>.a{fill:#fff;}</style></defs><g transform="translate(-325 -38)"><path class="a" d="M203.844,176.708l-.663-.333c-.153-.077-4.378-2.478-6.324-5.2a9.192,9.192,0,0,1,1.544-.643,7.324,7.324,0,0,1,1.587-.308,15.509,15.509,0,0,0,3.839,3.161,20.6,20.6,0,0,0,4.521-3.812,25.153,25.153,0,0,0-4.729-.844,17.1,17.1,0,0,0-6.485.85L196,170l-.629-1.032a33.023,33.023,0,0,1-2.544-5.165l-.525-1.418,1.434-.479a30.79,30.79,0,0,1,9.425-1.277,40.461,40.461,0,0,1,9.294,1.559,17.71,17.71,0,0,0,.556-2.517,36.147,36.147,0,0,0-13.529-1.371,27.618,27.618,0,0,0-6.1,1.169l-1.718.61-.229-1.808a33.864,33.864,0,0,1,0-5.333l.075-.968.921-.308a42.3,42.3,0,0,1,11.413-2.068,36.031,36.031,0,0,1,11.535,2.1l.888.339a33.1,33.1,0,0,1-.041,4.272l-2.789-.811c.009-.448.007-.907,0-1.37a33.323,33.323,0,0,0-9.589-1.6,37.664,37.664,0,0,0-9.546,1.628c-.027.562-.053,1.3-.048,2.027a38.15,38.15,0,0,1,20.8,1.07l1.039.349-.042,1.1a19.524,19.524,0,0,1-1.313,5.834l-.505,1.276-1.306-.421a41.375,41.375,0,0,0-9.82-1.824,29.5,29.5,0,0,0-6.913.719c.347.757.738,1.518,1.107,2.187a19.986,19.986,0,0,1,6.539-.657,26.936,26.936,0,0,1,7.5,1.671l1.676.693-1.03,1.493a22.5,22.5,0,0,1-7.485,6.709Z" transform="translate(133.673 -111.592)"/><path class="a" d="M.792-6.648C.792-2.472,3.528.216,7.368.216a6.065,6.065,0,0,0,6.264-4.7H10.008A2.536,2.536,0,0,1,7.344-2.664c-1.872,0-3.12-1.392-3.12-3.984s1.248-4.008,3.12-4.008a2.612,2.612,0,0,1,2.664,1.848h3.624c-.72-2.976-2.952-4.7-6.264-4.7C3.528-13.512.792-10.824.792-6.648Zm28.152,0a6.57,6.57,0,0,0-6.84-6.864,6.57,6.57,0,0,0-6.84,6.864A6.508,6.508,0,0,0,22.008.216,6.647,6.647,0,0,0,28.944-6.648Zm-10.272,0c0-2.664,1.608-3.936,3.384-3.936s3.432,1.272,3.432,3.936c0,2.64-1.7,3.936-3.48,3.936C20.208-2.712,18.672-4.008,18.672-6.648ZM40.728,0h3.36V-7.8c0-3.672-2.208-5.688-5.3-5.688a4.966,4.966,0,0,0-4.008,1.848V-13.3h-3.36V0h3.36V-7.344c0-2.136,1.176-3.288,3-3.288,1.776,0,2.952,1.152,2.952,3.288Zm7.08-4.128C47.808-1.08,49.512,0,52.056,0h2.112V-2.832h-1.56c-1.056,0-1.416-.384-1.416-1.272v-6.432h2.976V-13.3H51.192v-3.288H47.808V-13.3H46.224v2.76h1.584Zm21.624-2.52a6.57,6.57,0,0,0-6.84-6.864,6.57,6.57,0,0,0-6.84,6.864A6.508,6.508,0,0,0,62.5.216,6.647,6.647,0,0,0,69.432-6.648Zm-10.272,0c0-2.664,1.608-3.936,3.384-3.936s3.432,1.272,3.432,3.936c0,2.64-1.7,3.936-3.48,3.936C60.7-2.712,59.16-4.008,59.16-6.648ZM82.224-3.792c-.1-4.872-7.464-3.36-7.464-5.784,0-.768.648-1.272,1.9-1.272A1.981,1.981,0,0,1,78.888-9.12H82.1c-.192-2.64-2.136-4.392-5.352-4.392-3.288,0-5.256,1.776-5.256,3.984,0,4.872,7.512,3.36,7.512,5.736,0,.768-.72,1.368-2.04,1.368a2.207,2.207,0,0,1-2.4-1.776H71.184C71.328-1.728,73.656.216,76.992.216,80.232.216,82.224-1.512,82.224-3.792Zm15.6-2.856a6.57,6.57,0,0,0-6.84-6.864,6.57,6.57,0,0,0-6.84,6.864A6.508,6.508,0,0,0,90.888.216,6.647,6.647,0,0,0,97.824-6.648Zm-10.272,0c0-2.664,1.608-3.936,3.384-3.936s3.432,1.272,3.432,3.936c0,2.64-1.7,3.936-3.48,3.936C89.088-2.712,87.552-4.008,87.552-6.648ZM106.008,0h3.36V-13.3h-3.36Zm1.7-14.88a1.985,1.985,0,0,0,2.064-1.968,1.985,1.985,0,0,0-2.064-1.968,1.97,1.97,0,0,0-2.064,1.968A1.97,1.97,0,0,0,107.712-14.88ZM121.992,0h3.36V-7.8c0-3.672-2.208-5.688-5.3-5.688a4.966,4.966,0,0,0-4.008,1.848V-13.3h-3.36V0h3.36V-7.344c0-2.136,1.176-3.288,3-3.288,1.776,0,2.952,1.152,2.952,3.288Zm16.872-3.792c-.1-4.872-7.464-3.36-7.464-5.784,0-.768.648-1.272,1.9-1.272a1.981,1.981,0,0,1,2.232,1.728h3.216c-.192-2.64-2.136-4.392-5.352-4.392-3.288,0-5.256,1.776-5.256,3.984,0,4.872,7.512,3.36,7.512,5.736,0,.768-.72,1.368-2.04,1.368a2.207,2.207,0,0,1-2.4-1.776h-3.384c.144,2.472,2.472,4.416,5.808,4.416C136.872.216,138.864-1.512,138.864-3.792Zm15.312-9.5h-3.384v7.32c0,2.136-1.152,3.288-2.976,3.288-1.776,0-2.952-1.152-2.952-3.288V-13.3H141.5v7.8c0,3.648,2.232,5.664,5.328,5.664a4.9,4.9,0,0,0,3.96-1.848V0h3.384Zm6.672,6.672c0-2.568,1.2-3.336,3.192-3.336h.888v-3.528a4.611,4.611,0,0,0-4.08,2.256V-13.3h-3.36V0h3.36ZM166.32-6.7c0,4.152,2.688,6.912,6.048,6.912a5.244,5.244,0,0,0,4.416-2.16V0h3.384V-13.3h-3.384v1.9a5.258,5.258,0,0,0-4.392-2.112C169.008-13.512,166.32-10.848,166.32-6.7Zm10.464.048a3.58,3.58,0,0,1-3.528,3.912,3.633,3.633,0,0,1-3.5-3.96,3.546,3.546,0,0,1,3.5-3.864A3.58,3.58,0,0,1,176.784-6.648ZM192.768,0h3.36V-7.8c0-3.672-2.208-5.688-5.3-5.688a4.966,4.966,0,0,0-4.008,1.848V-13.3h-3.36V0h3.36V-7.344c0-2.136,1.176-3.288,3-3.288,1.776,0,2.952,1.152,2.952,3.288Zm5.688-6.648c0,4.176,2.736,6.864,6.576,6.864a6.065,6.065,0,0,0,6.264-4.7h-3.624a2.536,2.536,0,0,1-2.664,1.824c-1.872,0-3.12-1.392-3.12-3.984s1.248-4.008,3.12-4.008a2.612,2.612,0,0,1,2.664,1.848H211.3c-.72-2.976-2.952-4.7-6.264-4.7C201.192-13.512,198.456-10.824,198.456-6.648Zm21.024-4.1A2.954,2.954,0,0,1,222.648-7.9h-6.312A3.088,3.088,0,0,1,219.48-10.752Zm6.312,6.576h-3.624A2.74,2.74,0,0,1,219.5-2.568a3.111,3.111,0,0,1-3.192-3.072h9.72a7.853,7.853,0,0,0,.1-1.3,6.242,6.242,0,0,0-6.552-6.576c-3.936,0-6.672,2.664-6.672,6.864,0,4.176,2.808,6.864,6.672,6.864A6.18,6.18,0,0,0,225.792-4.176Z" transform="translate(363 60)"/></g></svg>